<?xml version="1.0" encoding="utf-8" standalone="no"?>
<!DOCTYPE svg PUBLIC "-//W3C//DTD SVG 1.1//EN"
  "http://www.w3.org/Graphics/SVG/1.1/DTD/svg11.dtd">
<!-- Created with matplotlib (https://matplotlib.org/) -->
<svg height="453.552812pt" version="1.1" viewBox="0 0 609.082813 453.552812" width="609.082813pt" xmlns="http://www.w3.org/2000/svg" xmlns:xlink="http://www.w3.org/1999/xlink">
 <metadata>
  <rdf:RDF xmlns:cc="http://creativecommons.org/ns#" xmlns:dc="http://purl.org/dc/elements/1.1/" xmlns:rdf="http://www.w3.org/1999/02/22-rdf-syntax-ns#">
   <cc:Work>
    <dc:type rdf:resource="http://purl.org/dc/dcmitype/StillImage"/>
    <dc:date>2022-02-19T23:00:45.494396</dc:date>
    <dc:format>image/svg+xml</dc:format>
    <dc:creator>
     <cc:Agent>
      <dc:title>Matplotlib v3.3.4, https://matplotlib.org/</dc:title>
     </cc:Agent>
    </dc:creator>
   </cc:Work>
  </rdf:RDF>
 </metadata>
 <defs>
  <style type="text/css">*{stroke-linecap:butt;stroke-linejoin:round;}</style>
 </defs>
 <g id="figure_1">
  <g id="patch_1">
   <path d="M 0 453.552812 
L 609.082813 453.552812 
L 609.082813 0 
L 0 0 
z
" style="fill:none;"/>
  </g>
  <g id="axes_1">
   <g id="patch_2">
    <path d="M 43.882813 415.996562 
L 601.882812 415.996562 
L 601.882812 35.476562 
L 43.882813 35.476562 
z
" style="fill:#ffffff;"/>
   </g>
   <g id="matplotlib.axis_1">
    <g id="ytick_1"/>
    <g id="ytick_2"/>
    <g id="ytick_3"/>
    <g id="ytick_4"/>
    <g id="ytick_5"/>
   </g>
   <g id="matplotlib.axis_2">
    <g id="xtick_1">
     <g id="line2d_1">
      <defs>
       <path d="M 0 0 
L 0 -3.5 
" id="m3ac4cbdebc" style="stroke:#000000;stroke-width:0.8;"/>
      </defs>
      <g>
       <use style="stroke:#000000;stroke-width:0.8;" x="69.246449" xlink:href="#m3ac4cbdebc" y="35.476562"/>
      </g>
     </g>
     <g id="text_1">
      <!-- 0 -->
      <g transform="translate(66.065199 26.396875)scale(0.1 -0.1)">
       <defs>
        <path d="M 31.78125 66.40625 
Q 24.171875 66.40625 20.328125 58.90625 
Q 16.5 51.421875 16.5 36.375 
Q 16.5 21.390625 20.328125 13.890625 
Q 24.171875 6.390625 31.78125 6.390625 
Q 39.453125 6.390625 43.28125 13.890625 
Q 47.125 21.390625 47.125 36.375 
Q 47.125 51.421875 43.28125 58.90625 
Q 39.453125 66.40625 31.78125 66.40625 
z
M 31.78125 74.21875 
Q 44.046875 74.21875 50.515625 64.515625 
Q 56.984375 54.828125 56.984375 36.375 
Q 56.984375 17.96875 50.515625 8.265625 
Q 44.046875 -1.421875 31.78125 -1.421875 
Q 19.53125 -1.421875 13.0625 8.265625 
Q 6.59375 17.96875 6.59375 36.375 
Q 6.59375 54.828125 13.0625 64.515625 
Q 19.53125 74.21875 31.78125 74.21875 
z
" id="DejaVuSans-48"/>
       </defs>
       <use xlink:href="#DejaVuSans-48"/>
      </g>
     </g>
    </g>
    <g id="xtick_2">
     <g id="line2d_2">
      <g>
       <use style="stroke:#000000;stroke-width:0.8;" x="137.612046" xlink:href="#m3ac4cbdebc" y="35.476562"/>
      </g>
     </g>
     <g id="text_2">
      <!-- 100 -->
      <g transform="translate(128.068296 26.396875)scale(0.1 -0.1)">
       <defs>
        <path d="M 12.40625 8.296875 
L 28.515625 8.296875 
L 28.515625 63.921875 
L 10.984375 60.40625 
L 10.984375 69.390625 
L 28.421875 72.90625 
L 38.28125 72.90625 
L 38.28125 8.296875 
L 54.390625 8.296875 
L 54.390625 0 
L 12.40625 0 
z
" id="DejaVuSans-49"/>
       </defs>
       <use xlink:href="#DejaVuSans-49"/>
       <use x="63.623047" xlink:href="#DejaVuSans-48"/>
       <use x="127.246094" xlink:href="#DejaVuSans-48"/>
      </g>
     </g>
    </g>
    <g id="xtick_3">
     <g id="line2d_3">
      <g>
       <use style="stroke:#000000;stroke-width:0.8;" x="205.977642" xlink:href="#m3ac4cbdebc" y="35.476562"/>
      </g>
     </g>
     <g id="text_3">
      <!-- 200 -->
      <g transform="translate(196.433892 26.396875)scale(0.1 -0.1)">
       <defs>
        <path d="M 19.1875 8.296875 
L 53.609375 8.296875 
L 53.609375 0 
L 7.328125 0 
L 7.328125 8.296875 
Q 12.9375 14.109375 22.625 23.890625 
Q 32.328125 33.6875 34.8125 36.53125 
Q 39.546875 41.84375 41.421875 45.53125 
Q 43.3125 49.21875 43.3125 52.78125 
Q 43.3125 58.59375 39.234375 62.25 
Q 35.15625 65.921875 28.609375 65.921875 
Q 23.96875 65.921875 18.8125 64.3125 
Q 13.671875 62.703125 7.8125 59.421875 
L 7.8125 69.390625 
Q 13.765625 71.78125 18.9375 73 
Q 24.125 74.21875 28.421875 74.21875 
Q 39.75 74.21875 46.484375 68.546875 
Q 53.21875 62.890625 53.21875 53.421875 
Q 53.21875 48.921875 51.53125 44.890625 
Q 49.859375 40.875 45.40625 35.40625 
Q 44.1875 33.984375 37.640625 27.21875 
Q 31.109375 20.453125 19.1875 8.296875 
z
" id="DejaVuSans-50"/>
       </defs>
       <use xlink:href="#DejaVuSans-50"/>
       <use x="63.623047" xlink:href="#DejaVuSans-48"/>
       <use x="127.246094" xlink:href="#DejaVuSans-48"/>
      </g>
     </g>
    </g>
    <g id="xtick_4">
     <g id="line2d_4">
      <g>
       <use style="stroke:#000000;stroke-width:0.8;" x="274.343239" xlink:href="#m3ac4cbdebc" y="35.476562"/>
      </g>
     </g>
     <g id="text_4">
      <!-- 300 -->
      <g transform="translate(264.799489 26.396875)scale(0.1 -0.1)">
       <defs>
        <path d="M 40.578125 39.3125 
Q 47.65625 37.796875 51.625 33 
Q 55.609375 28.21875 55.609375 21.1875 
Q 55.609375 10.40625 48.1875 4.484375 
Q 40.765625 -1.421875 27.09375 -1.421875 
Q 22.515625 -1.421875 17.65625 -0.515625 
Q 12.796875 0.390625 7.625 2.203125 
L 7.625 11.71875 
Q 11.71875 9.328125 16.59375 8.109375 
Q 21.484375 6.890625 26.8125 6.890625 
Q 36.078125 6.890625 40.9375 10.546875 
Q 45.796875 14.203125 45.796875 21.1875 
Q 45.796875 27.640625 41.28125 31.265625 
Q 36.765625 34.90625 28.71875 34.90625 
L 20.21875 34.90625 
L 20.21875 43.015625 
L 29.109375 43.015625 
Q 36.375 43.015625 40.234375 45.921875 
Q 44.09375 48.828125 44.09375 54.296875 
Q 44.09375 59.90625 40.109375 62.90625 
Q 36.140625 65.921875 28.71875 65.921875 
Q 24.65625 65.921875 20.015625 65.03125 
Q 15.375 64.15625 9.8125 62.3125 
L 9.8125 71.09375 
Q 15.4375 72.65625 20.34375 73.4375 
Q 25.25 74.21875 29.59375 74.21875 
Q 40.828125 74.21875 47.359375 69.109375 
Q 53.90625 64.015625 53.90625 55.328125 
Q 53.90625 49.265625 50.4375 45.09375 
Q 46.96875 40.921875 40.578125 39.3125 
z
" id="DejaVuSans-51"/>
       </defs>
       <use xlink:href="#DejaVuSans-51"/>
       <use x="63.623047" xlink:href="#DejaVuSans-48"/>
       <use x="127.246094" xlink:href="#DejaVuSans-48"/>
      </g>
     </g>
    </g>
    <g id="xtick_5">
     <g id="line2d_5">
      <g>
       <use style="stroke:#000000;stroke-width:0.8;" x="342.708836" xlink:href="#m3ac4cbdebc" y="35.476562"/>
      </g>
     </g>
     <g id="text_5">
      <!-- 400 -->
      <g transform="translate(333.165086 26.396875)scale(0.1 -0.1)">
       <defs>
        <path d="M 37.796875 64.3125 
L 12.890625 25.390625 
L 37.796875 25.390625 
z
M 35.203125 72.90625 
L 47.609375 72.90625 
L 47.609375 25.390625 
L 58.015625 25.390625 
L 58.015625 17.1875 
L 47.609375 17.1875 
L 47.609375 0 
L 37.796875 0 
L 37.796875 17.1875 
L 4.890625 17.1875 
L 4.890625 26.703125 
z
" id="DejaVuSans-52"/>
       </defs>
       <use xlink:href="#DejaVuSans-52"/>
       <use x="63.623047" xlink:href="#DejaVuSans-48"/>
       <use x="127.246094" xlink:href="#DejaVuSans-48"/>
      </g>
     </g>
    </g>
    <g id="xtick_6">
     <g id="line2d_6">
      <g>
       <use style="stroke:#000000;stroke-width:0.8;" x="411.074432" xlink:href="#m3ac4cbdebc" y="35.476562"/>
      </g>
     </g>
     <g id="text_6">
      <!-- 500 -->
      <g transform="translate(401.530682 26.396875)scale(0.1 -0.1)">
       <defs>
        <path d="M 10.796875 72.90625 
L 49.515625 72.90625 
L 49.515625 64.59375 
L 19.828125 64.59375 
L 19.828125 46.734375 
Q 21.96875 47.46875 24.109375 47.828125 
Q 26.265625 48.1875 28.421875 48.1875 
Q 40.625 48.1875 47.75 41.5 
Q 54.890625 34.8125 54.890625 23.390625 
Q 54.890625 11.625 47.5625 5.09375 
Q 40.234375 -1.421875 26.90625 -1.421875 
Q 22.3125 -1.421875 17.546875 -0.640625 
Q 12.796875 0.140625 7.71875 1.703125 
L 7.71875 11.625 
Q 12.109375 9.234375 16.796875 8.0625 
Q 21.484375 6.890625 26.703125 6.890625 
Q 35.15625 6.890625 40.078125 11.328125 
Q 45.015625 15.765625 45.015625 23.390625 
Q 45.015625 31 40.078125 35.4375 
Q 35.15625 39.890625 26.703125 39.890625 
Q 22.75 39.890625 18.8125 39.015625 
Q 14.890625 38.140625 10.796875 36.28125 
z
" id="DejaVuSans-53"/>
       </defs>
       <use xlink:href="#DejaVuSans-53"/>
       <use x="63.623047" xlink:href="#DejaVuSans-48"/>
       <use x="127.246094" xlink:href="#DejaVuSans-48"/>
      </g>
     </g>
    </g>
    <g id="xtick_7">
     <g id="line2d_7">
      <g>
       <use style="stroke:#000000;stroke-width:0.8;" x="479.440029" xlink:href="#m3ac4cbdebc" y="35.476562"/>
      </g>
     </g>
     <g id="text_7">
      <!-- 600 -->
      <g transform="translate(469.896279 26.396875)scale(0.1 -0.1)">
       <defs>
        <path d="M 33.015625 40.375 
Q 26.375 40.375 22.484375 35.828125 
Q 18.609375 31.296875 18.609375 23.390625 
Q 18.609375 15.53125 22.484375 10.953125 
Q 26.375 6.390625 33.015625 6.390625 
Q 39.65625 6.390625 43.53125 10.953125 
Q 47.40625 15.53125 47.40625 23.390625 
Q 47.40625 31.296875 43.53125 35.828125 
Q 39.65625 40.375 33.015625 40.375 
z
M 52.59375 71.296875 
L 52.59375 62.3125 
Q 48.875 64.0625 45.09375 64.984375 
Q 41.3125 65.921875 37.59375 65.921875 
Q 27.828125 65.921875 22.671875 59.328125 
Q 17.53125 52.734375 16.796875 39.40625 
Q 19.671875 43.65625 24.015625 45.921875 
Q 28.375 48.1875 33.59375 48.1875 
Q 44.578125 48.1875 50.953125 41.515625 
Q 57.328125 34.859375 57.328125 23.390625 
Q 57.328125 12.15625 50.6875 5.359375 
Q 44.046875 -1.421875 33.015625 -1.421875 
Q 20.359375 -1.421875 13.671875 8.265625 
Q 6.984375 17.96875 6.984375 36.375 
Q 6.984375 53.65625 15.1875 63.9375 
Q 23.390625 74.21875 37.203125 74.21875 
Q 40.921875 74.21875 44.703125 73.484375 
Q 48.484375 72.75 52.59375 71.296875 
z
" id="DejaVuSans-54"/>
       </defs>
       <use xlink:href="#DejaVuSans-54"/>
       <use x="63.623047" xlink:href="#DejaVuSans-48"/>
       <use x="127.246094" xlink:href="#DejaVuSans-48"/>
      </g>
     </g>
    </g>
    <g id="xtick_8">
     <g id="line2d_8">
      <g>
       <use style="stroke:#000000;stroke-width:0.8;" x="547.805626" xlink:href="#m3ac4cbdebc" y="35.476562"/>
      </g>
     </g>
     <g id="text_8">
      <!-- 700 -->
      <g transform="translate(538.261876 26.396875)scale(0.1 -0.1)">
       <defs>
        <path d="M 8.203125 72.90625 
L 55.078125 72.90625 
L 55.078125 68.703125 
L 28.609375 0 
L 18.3125 0 
L 43.21875 64.59375 
L 8.203125 64.59375 
z
" id="DejaVuSans-55"/>
       </defs>
       <use xlink:href="#DejaVuSans-55"/>
       <use x="63.623047" xlink:href="#DejaVuSans-48"/>
       <use x="127.246094" xlink:href="#DejaVuSans-48"/>
      </g>
     </g>
    </g>
    <g id="text_9">
     <!-- Steps (EVAL) -->
     <g style="fill:#ff7f0e;" transform="translate(290.935156 14.798437)scale(0.1 -0.1)">
      <defs>
       <path d="M 53.515625 70.515625 
L 53.515625 60.890625 
Q 47.90625 63.578125 42.921875 64.890625 
Q 37.9375 66.21875 33.296875 66.21875 
Q 25.25 66.21875 20.875 63.09375 
Q 16.5 59.96875 16.5 54.203125 
Q 16.5 49.359375 19.40625 46.890625 
Q 22.3125 44.4375 30.421875 42.921875 
L 36.375 41.703125 
Q 47.40625 39.59375 52.65625 34.296875 
Q 57.90625 29 57.90625 20.125 
Q 57.90625 9.515625 50.796875 4.046875 
Q 43.703125 -1.421875 29.984375 -1.421875 
Q 24.8125 -1.421875 18.96875 -0.25 
Q 13.140625 0.921875 6.890625 3.21875 
L 6.890625 13.375 
Q 12.890625 10.015625 18.65625 8.296875 
Q 24.421875 6.59375 29.984375 6.59375 
Q 38.421875 6.59375 43.015625 9.90625 
Q 47.609375 13.234375 47.609375 19.390625 
Q 47.609375 24.75 44.3125 27.78125 
Q 41.015625 30.8125 33.5 32.328125 
L 27.484375 33.5 
Q 16.453125 35.6875 11.515625 40.375 
Q 6.59375 45.0625 6.59375 53.421875 
Q 6.59375 63.09375 13.40625 68.65625 
Q 20.21875 74.21875 32.171875 74.21875 
Q 37.3125 74.21875 42.625 73.28125 
Q 47.953125 72.359375 53.515625 70.515625 
z
" id="DejaVuSans-83"/>
       <path d="M 18.3125 70.21875 
L 18.3125 54.6875 
L 36.8125 54.6875 
L 36.8125 47.703125 
L 18.3125 47.703125 
L 18.3125 18.015625 
Q 18.3125 11.328125 20.140625 9.421875 
Q 21.96875 7.515625 27.59375 7.515625 
L 36.8125 7.515625 
L 36.8125 0 
L 27.59375 0 
Q 17.1875 0 13.234375 3.875 
Q 9.28125 7.765625 9.28125 18.015625 
L 9.28125 47.703125 
L 2.6875 47.703125 
L 2.6875 54.6875 
L 9.28125 54.6875 
L 9.28125 70.21875 
z
" id="DejaVuSans-116"/>
       <path d="M 56.203125 29.59375 
L 56.203125 25.203125 
L 14.890625 25.203125 
Q 15.484375 15.921875 20.484375 11.0625 
Q 25.484375 6.203125 34.421875 6.203125 
Q 39.59375 6.203125 44.453125 7.46875 
Q 49.3125 8.734375 54.109375 11.28125 
L 54.109375 2.78125 
Q 49.265625 0.734375 44.1875 -0.34375 
Q 39.109375 -1.421875 33.890625 -1.421875 
Q 20.796875 -1.421875 13.15625 6.1875 
Q 5.515625 13.8125 5.515625 26.8125 
Q 5.515625 40.234375 12.765625 48.109375 
Q 20.015625 56 32.328125 56 
Q 43.359375 56 49.78125 48.890625 
Q 56.203125 41.796875 56.203125 29.59375 
z
M 47.21875 32.234375 
Q 47.125 39.59375 43.09375 43.984375 
Q 39.0625 48.390625 32.421875 48.390625 
Q 24.90625 48.390625 20.390625 44.140625 
Q 15.875 39.890625 15.1875 32.171875 
z
" id="DejaVuSans-101"/>
       <path d="M 18.109375 8.203125 
L 18.109375 -20.796875 
L 9.078125 -20.796875 
L 9.078125 54.6875 
L 18.109375 54.6875 
L 18.109375 46.390625 
Q 20.953125 51.265625 25.265625 53.625 
Q 29.59375 56 35.59375 56 
Q 45.5625 56 51.78125 48.09375 
Q 58.015625 40.1875 58.015625 27.296875 
Q 58.015625 14.40625 51.78125 6.484375 
Q 45.5625 -1.421875 35.59375 -1.421875 
Q 29.59375 -1.421875 25.265625 0.953125 
Q 20.953125 3.328125 18.109375 8.203125 
z
M 48.6875 27.296875 
Q 48.6875 37.203125 44.609375 42.84375 
Q 40.53125 48.484375 33.40625 48.484375 
Q 26.265625 48.484375 22.1875 42.84375 
Q 18.109375 37.203125 18.109375 27.296875 
Q 18.109375 17.390625 22.1875 11.75 
Q 26.265625 6.109375 33.40625 6.109375 
Q 40.53125 6.109375 44.609375 11.75 
Q 48.6875 17.390625 48.6875 27.296875 
z
" id="DejaVuSans-112"/>
       <path d="M 44.28125 53.078125 
L 44.28125 44.578125 
Q 40.484375 46.53125 36.375 47.5 
Q 32.28125 48.484375 27.875 48.484375 
Q 21.1875 48.484375 17.84375 46.4375 
Q 14.5 44.390625 14.5 40.28125 
Q 14.5 37.15625 16.890625 35.375 
Q 19.28125 33.59375 26.515625 31.984375 
L 29.59375 31.296875 
Q 39.15625 29.25 43.1875 25.515625 
Q 47.21875 21.78125 47.21875 15.09375 
Q 47.21875 7.46875 41.1875 3.015625 
Q 35.15625 -1.421875 24.609375 -1.421875 
Q 20.21875 -1.421875 15.453125 -0.5625 
Q 10.6875 0.296875 5.421875 2 
L 5.421875 11.28125 
Q 10.40625 8.6875 15.234375 7.390625 
Q 20.0625 6.109375 24.8125 6.109375 
Q 31.15625 6.109375 34.5625 8.28125 
Q 37.984375 10.453125 37.984375 14.40625 
Q 37.984375 18.0625 35.515625 20.015625 
Q 33.0625 21.96875 24.703125 23.78125 
L 21.578125 24.515625 
Q 13.234375 26.265625 9.515625 29.90625 
Q 5.8125 33.546875 5.8125 39.890625 
Q 5.8125 47.609375 11.28125 51.796875 
Q 16.75 56 26.8125 56 
Q 31.78125 56 36.171875 55.265625 
Q 40.578125 54.546875 44.28125 53.078125 
z
" id="DejaVuSans-115"/>
       <path id="DejaVuSans-32"/>
       <path d="M 31 75.875 
Q 24.46875 64.65625 21.28125 53.65625 
Q 18.109375 42.671875 18.109375 31.390625 
Q 18.109375 20.125 21.3125 9.0625 
Q 24.515625 -2 31 -13.1875 
L 23.1875 -13.1875 
Q 15.875 -1.703125 12.234375 9.375 
Q 8.59375 20.453125 8.59375 31.390625 
Q 8.59375 42.28125 12.203125 53.3125 
Q 15.828125 64.359375 23.1875 75.875 
z
" id="DejaVuSans-40"/>
       <path d="M 9.8125 72.90625 
L 55.90625 72.90625 
L 55.90625 64.59375 
L 19.671875 64.59375 
L 19.671875 43.015625 
L 54.390625 43.015625 
L 54.390625 34.71875 
L 19.671875 34.71875 
L 19.671875 8.296875 
L 56.78125 8.296875 
L 56.78125 0 
L 9.8125 0 
z
" id="DejaVuSans-69"/>
       <path d="M 28.609375 0 
L 0.78125 72.90625 
L 11.078125 72.90625 
L 34.1875 11.53125 
L 57.328125 72.90625 
L 67.578125 72.90625 
L 39.796875 0 
z
" id="DejaVuSans-86"/>
       <path d="M 34.1875 63.1875 
L 20.796875 26.90625 
L 47.609375 26.90625 
z
M 28.609375 72.90625 
L 39.796875 72.90625 
L 67.578125 0 
L 57.328125 0 
L 50.6875 18.703125 
L 17.828125 18.703125 
L 11.1875 0 
L 0.78125 0 
z
" id="DejaVuSans-65"/>
       <path d="M 9.8125 72.90625 
L 19.671875 72.90625 
L 19.671875 8.296875 
L 55.171875 8.296875 
L 55.171875 0 
L 9.8125 0 
z
" id="DejaVuSans-76"/>
       <path d="M 8.015625 75.875 
L 15.828125 75.875 
Q 23.140625 64.359375 26.78125 53.3125 
Q 30.421875 42.28125 30.421875 31.390625 
Q 30.421875 20.453125 26.78125 9.375 
Q 23.140625 -1.703125 15.828125 -13.1875 
L 8.015625 -13.1875 
Q 14.5 -2 17.703125 9.0625 
Q 20.90625 20.125 20.90625 31.390625 
Q 20.90625 42.671875 17.703125 53.65625 
Q 14.5 64.65625 8.015625 75.875 
z
" id="DejaVuSans-41"/>
      </defs>
      <use xlink:href="#DejaVuSans-83"/>
      <use x="63.476562" xlink:href="#DejaVuSans-116"/>
      <use x="102.685547" xlink:href="#DejaVuSans-101"/>
      <use x="164.208984" xlink:href="#DejaVuSans-112"/>
      <use x="227.685547" xlink:href="#DejaVuSans-115"/>
      <use x="279.785156" xlink:href="#DejaVuSans-32"/>
      <use x="311.572266" xlink:href="#DejaVuSans-40"/>
      <use x="350.585938" xlink:href="#DejaVuSans-69"/>
      <use x="413.769531" xlink:href="#DejaVuSans-86"/>
      <use x="475.802734" xlink:href="#DejaVuSans-65"/>
      <use x="544.210938" xlink:href="#DejaVuSans-76"/>
      <use x="599.923828" xlink:href="#DejaVuSans-41"/>
     </g>
    </g>
   </g>
   <g id="matplotlib.axis_3">
    <g id="xtick_9">
     <g id="line2d_9">
      <defs>
       <path d="M 0 0 
L 0 3.5 
" id="m57cd76cbbf" style="stroke:#000000;stroke-width:0.8;"/>
      </defs>
      <g>
       <use style="stroke:#000000;stroke-width:0.8;" x="69.246449" xlink:href="#m57cd76cbbf" y="415.996562"/>
      </g>
     </g>
     <g id="text_10">
      <!-- 0 -->
      <g transform="translate(66.065199 430.595)scale(0.1 -0.1)">
       <use xlink:href="#DejaVuSans-48"/>
      </g>
     </g>
    </g>
    <g id="xtick_10">
     <g id="line2d_10">
      <g>
       <use style="stroke:#000000;stroke-width:0.8;" x="149.765929" xlink:href="#m57cd76cbbf" y="415.996562"/>
      </g>
     </g>
     <g id="text_11">
      <!-- 100 -->
      <g transform="translate(140.222179 430.595)scale(0.1 -0.1)">
       <use xlink:href="#DejaVuSans-49"/>
       <use x="63.623047" xlink:href="#DejaVuSans-48"/>
       <use x="127.246094" xlink:href="#DejaVuSans-48"/>
      </g>
     </g>
    </g>
    <g id="xtick_11">
     <g id="line2d_11">
      <g>
       <use style="stroke:#000000;stroke-width:0.8;" x="230.28541" xlink:href="#m57cd76cbbf" y="415.996562"/>
      </g>
     </g>
     <g id="text_12">
      <!-- 200 -->
      <g transform="translate(220.74166 430.595)scale(0.1 -0.1)">
       <use xlink:href="#DejaVuSans-50"/>
       <use x="63.623047" xlink:href="#DejaVuSans-48"/>
       <use x="127.246094" xlink:href="#DejaVuSans-48"/>
      </g>
     </g>
    </g>
    <g id="xtick_12">
     <g id="line2d_12">
      <g>
       <use style="stroke:#000000;stroke-width:0.8;" x="310.80489" xlink:href="#m57cd76cbbf" y="415.996562"/>
      </g>
     </g>
     <g id="text_13">
      <!-- 300 -->
      <g transform="translate(301.26114 430.595)scale(0.1 -0.1)">
       <use xlink:href="#DejaVuSans-51"/>
       <use x="63.623047" xlink:href="#DejaVuSans-48"/>
       <use x="127.246094" xlink:href="#DejaVuSans-48"/>
      </g>
     </g>
    </g>
    <g id="xtick_13">
     <g id="line2d_13">
      <g>
       <use style="stroke:#000000;stroke-width:0.8;" x="391.324371" xlink:href="#m57cd76cbbf" y="415.996562"/>
      </g>
     </g>
     <g id="text_14">
      <!-- 400 -->
      <g transform="translate(381.780621 430.595)scale(0.1 -0.1)">
       <use xlink:href="#DejaVuSans-52"/>
       <use x="63.623047" xlink:href="#DejaVuSans-48"/>
       <use x="127.246094" xlink:href="#DejaVuSans-48"/>
      </g>
     </g>
    </g>
    <g id="xtick_14">
     <g id="line2d_14">
      <g>
       <use style="stroke:#000000;stroke-width:0.8;" x="471.843851" xlink:href="#m57cd76cbbf" y="415.996562"/>
      </g>
     </g>
     <g id="text_15">
      <!-- 500 -->
      <g transform="translate(462.300101 430.595)scale(0.1 -0.1)">
       <use xlink:href="#DejaVuSans-53"/>
       <use x="63.623047" xlink:href="#DejaVuSans-48"/>
       <use x="127.246094" xlink:href="#DejaVuSans-48"/>
      </g>
     </g>
    </g>
    <g id="xtick_15">
     <g id="line2d_15">
      <g>
       <use style="stroke:#000000;stroke-width:0.8;" x="552.363332" xlink:href="#m57cd76cbbf" y="415.996562"/>
      </g>
     </g>
     <g id="text_16">
      <!-- 600 -->
      <g transform="translate(542.819582 430.595)scale(0.1 -0.1)">
       <use xlink:href="#DejaVuSans-54"/>
       <use x="63.623047" xlink:href="#DejaVuSans-48"/>
       <use x="127.246094" xlink:href="#DejaVuSans-48"/>
      </g>
     </g>
    </g>
    <g id="text_17">
     <!-- Steps (TRAIN) -->
     <g style="fill:#1f77b4;" transform="translate(288.438281 444.273125)scale(0.1 -0.1)">
      <defs>
       <path d="M -0.296875 72.90625 
L 61.375 72.90625 
L 61.375 64.59375 
L 35.5 64.59375 
L 35.5 0 
L 25.59375 0 
L 25.59375 64.59375 
L -0.296875 64.59375 
z
" id="DejaVuSans-84"/>
       <path d="M 44.390625 34.1875 
Q 47.5625 33.109375 50.5625 29.59375 
Q 53.5625 26.078125 56.59375 19.921875 
L 66.609375 0 
L 56 0 
L 46.6875 18.703125 
Q 43.0625 26.03125 39.671875 28.421875 
Q 36.28125 30.8125 30.421875 30.8125 
L 19.671875 30.8125 
L 19.671875 0 
L 9.8125 0 
L 9.8125 72.90625 
L 32.078125 72.90625 
Q 44.578125 72.90625 50.734375 67.671875 
Q 56.890625 62.453125 56.890625 51.90625 
Q 56.890625 45.015625 53.6875 40.46875 
Q 50.484375 35.9375 44.390625 34.1875 
z
M 19.671875 64.796875 
L 19.671875 38.921875 
L 32.078125 38.921875 
Q 39.203125 38.921875 42.84375 42.21875 
Q 46.484375 45.515625 46.484375 51.90625 
Q 46.484375 58.296875 42.84375 61.546875 
Q 39.203125 64.796875 32.078125 64.796875 
z
" id="DejaVuSans-82"/>
       <path d="M 9.8125 72.90625 
L 19.671875 72.90625 
L 19.671875 0 
L 9.8125 0 
z
" id="DejaVuSans-73"/>
       <path d="M 9.8125 72.90625 
L 23.09375 72.90625 
L 55.421875 11.921875 
L 55.421875 72.90625 
L 64.984375 72.90625 
L 64.984375 0 
L 51.703125 0 
L 19.390625 60.984375 
L 19.390625 0 
L 9.8125 0 
z
" id="DejaVuSans-78"/>
      </defs>
      <use xlink:href="#DejaVuSans-83"/>
      <use x="63.476562" xlink:href="#DejaVuSans-116"/>
      <use x="102.685547" xlink:href="#DejaVuSans-101"/>
      <use x="164.208984" xlink:href="#DejaVuSans-112"/>
      <use x="227.685547" xlink:href="#DejaVuSans-115"/>
      <use x="279.785156" xlink:href="#DejaVuSans-32"/>
      <use x="311.572266" xlink:href="#DejaVuSans-40"/>
      <use x="350.585938" xlink:href="#DejaVuSans-84"/>
      <use x="411.669922" xlink:href="#DejaVuSans-82"/>
      <use x="477.152344" xlink:href="#DejaVuSans-65"/>
      <use x="545.560547" xlink:href="#DejaVuSans-73"/>
      <use x="575.052734" xlink:href="#DejaVuSans-78"/>
      <use x="649.857422" xlink:href="#DejaVuSans-41"/>
     </g>
    </g>
   </g>
   <g id="matplotlib.axis_4">
    <g id="ytick_6">
     <g id="line2d_16">
      <defs>
       <path d="M 0 0 
L -3.5 0 
" id="m1844d755fa" style="stroke:#000000;stroke-width:0.8;"/>
      </defs>
      <g>
       <use style="stroke:#000000;stroke-width:0.8;" x="43.882813" xlink:href="#m1844d755fa" y="384.063931"/>
      </g>
     </g>
     <g id="text_18">
      <!-- 1.2 -->
      <g transform="translate(20.979688 387.863149)scale(0.1 -0.1)">
       <defs>
        <path d="M 10.6875 12.40625 
L 21 12.40625 
L 21 0 
L 10.6875 0 
z
" id="DejaVuSans-46"/>
       </defs>
       <use xlink:href="#DejaVuSans-49"/>
       <use x="63.623047" xlink:href="#DejaVuSans-46"/>
       <use x="95.410156" xlink:href="#DejaVuSans-50"/>
      </g>
     </g>
    </g>
    <g id="ytick_7">
     <g id="line2d_17">
      <g>
       <use style="stroke:#000000;stroke-width:0.8;" x="43.882813" xlink:href="#m1844d755fa" y="308.864987"/>
      </g>
     </g>
     <g id="text_19">
      <!-- 1.4 -->
      <g transform="translate(20.979688 312.664205)scale(0.1 -0.1)">
       <use xlink:href="#DejaVuSans-49"/>
       <use x="63.623047" xlink:href="#DejaVuSans-46"/>
       <use x="95.410156" xlink:href="#DejaVuSans-52"/>
      </g>
     </g>
    </g>
    <g id="ytick_8">
     <g id="line2d_18">
      <g>
       <use style="stroke:#000000;stroke-width:0.8;" x="43.882813" xlink:href="#m1844d755fa" y="233.666043"/>
      </g>
     </g>
     <g id="text_20">
      <!-- 1.6 -->
      <g transform="translate(20.979688 237.465261)scale(0.1 -0.1)">
       <use xlink:href="#DejaVuSans-49"/>
       <use x="63.623047" xlink:href="#DejaVuSans-46"/>
       <use x="95.410156" xlink:href="#DejaVuSans-54"/>
      </g>
     </g>
    </g>
    <g id="ytick_9">
     <g id="line2d_19">
      <g>
       <use style="stroke:#000000;stroke-width:0.8;" x="43.882813" xlink:href="#m1844d755fa" y="158.467099"/>
      </g>
     </g>
     <g id="text_21">
      <!-- 1.8 -->
      <g transform="translate(20.979688 162.266318)scale(0.1 -0.1)">
       <defs>
        <path d="M 31.78125 34.625 
Q 24.75 34.625 20.71875 30.859375 
Q 16.703125 27.09375 16.703125 20.515625 
Q 16.703125 13.921875 20.71875 10.15625 
Q 24.75 6.390625 31.78125 6.390625 
Q 38.8125 6.390625 42.859375 10.171875 
Q 46.921875 13.96875 46.921875 20.515625 
Q 46.921875 27.09375 42.890625 30.859375 
Q 38.875 34.625 31.78125 34.625 
z
M 21.921875 38.8125 
Q 15.578125 40.375 12.03125 44.71875 
Q 8.5 49.078125 8.5 55.328125 
Q 8.5 64.0625 14.71875 69.140625 
Q 20.953125 74.21875 31.78125 74.21875 
Q 42.671875 74.21875 48.875 69.140625 
Q 55.078125 64.0625 55.078125 55.328125 
Q 55.078125 49.078125 51.53125 44.71875 
Q 48 40.375 41.703125 38.8125 
Q 48.828125 37.15625 52.796875 32.3125 
Q 56.78125 27.484375 56.78125 20.515625 
Q 56.78125 9.90625 50.3125 4.234375 
Q 43.84375 -1.421875 31.78125 -1.421875 
Q 19.734375 -1.421875 13.25 4.234375 
Q 6.78125 9.90625 6.78125 20.515625 
Q 6.78125 27.484375 10.78125 32.3125 
Q 14.796875 37.15625 21.921875 38.8125 
z
M 18.3125 54.390625 
Q 18.3125 48.734375 21.84375 45.5625 
Q 25.390625 42.390625 31.78125 42.390625 
Q 38.140625 42.390625 41.71875 45.5625 
Q 45.3125 48.734375 45.3125 54.390625 
Q 45.3125 60.0625 41.71875 63.234375 
Q 38.140625 66.40625 31.78125 66.40625 
Q 25.390625 66.40625 21.84375 63.234375 
Q 18.3125 60.0625 18.3125 54.390625 
z
" id="DejaVuSans-56"/>
       </defs>
       <use xlink:href="#DejaVuSans-49"/>
       <use x="63.623047" xlink:href="#DejaVuSans-46"/>
       <use x="95.410156" xlink:href="#DejaVuSans-56"/>
      </g>
     </g>
    </g>
    <g id="ytick_10">
     <g id="line2d_20">
      <g>
       <use style="stroke:#000000;stroke-width:0.8;" x="43.882813" xlink:href="#m1844d755fa" y="83.268155"/>
      </g>
     </g>
     <g id="text_22">
      <!-- 2.0 -->
      <g transform="translate(20.979688 87.067374)scale(0.1 -0.1)">
       <use xlink:href="#DejaVuSans-50"/>
       <use x="63.623047" xlink:href="#DejaVuSans-46"/>
       <use x="95.410156" xlink:href="#DejaVuSans-48"/>
      </g>
     </g>
    </g>
    <g id="text_23">
     <!-- CrossEntropyLoss_output_0 -->
     <g transform="translate(14.621875 294.50375)rotate(-90)scale(0.1 -0.1)">
      <defs>
       <path d="M 64.40625 67.28125 
L 64.40625 56.890625 
Q 59.421875 61.53125 53.78125 63.8125 
Q 48.140625 66.109375 41.796875 66.109375 
Q 29.296875 66.109375 22.65625 58.46875 
Q 16.015625 50.828125 16.015625 36.375 
Q 16.015625 21.96875 22.65625 14.328125 
Q 29.296875 6.6875 41.796875 6.6875 
Q 48.140625 6.6875 53.78125 8.984375 
Q 59.421875 11.28125 64.40625 15.921875 
L 64.40625 5.609375 
Q 59.234375 2.09375 53.4375 0.328125 
Q 47.65625 -1.421875 41.21875 -1.421875 
Q 24.65625 -1.421875 15.125 8.703125 
Q 5.609375 18.84375 5.609375 36.375 
Q 5.609375 53.953125 15.125 64.078125 
Q 24.65625 74.21875 41.21875 74.21875 
Q 47.75 74.21875 53.53125 72.484375 
Q 59.328125 70.75 64.40625 67.28125 
z
" id="DejaVuSans-67"/>
       <path d="M 41.109375 46.296875 
Q 39.59375 47.171875 37.8125 47.578125 
Q 36.03125 48 33.890625 48 
Q 26.265625 48 22.1875 43.046875 
Q 18.109375 38.09375 18.109375 28.8125 
L 18.109375 0 
L 9.078125 0 
L 9.078125 54.6875 
L 18.109375 54.6875 
L 18.109375 46.1875 
Q 20.953125 51.171875 25.484375 53.578125 
Q 30.03125 56 36.53125 56 
Q 37.453125 56 38.578125 55.875 
Q 39.703125 55.765625 41.0625 55.515625 
z
" id="DejaVuSans-114"/>
       <path d="M 30.609375 48.390625 
Q 23.390625 48.390625 19.1875 42.75 
Q 14.984375 37.109375 14.984375 27.296875 
Q 14.984375 17.484375 19.15625 11.84375 
Q 23.34375 6.203125 30.609375 6.203125 
Q 37.796875 6.203125 41.984375 11.859375 
Q 46.1875 17.53125 46.1875 27.296875 
Q 46.1875 37.015625 41.984375 42.703125 
Q 37.796875 48.390625 30.609375 48.390625 
z
M 30.609375 56 
Q 42.328125 56 49.015625 48.375 
Q 55.71875 40.765625 55.71875 27.296875 
Q 55.71875 13.875 49.015625 6.21875 
Q 42.328125 -1.421875 30.609375 -1.421875 
Q 18.84375 -1.421875 12.171875 6.21875 
Q 5.515625 13.875 5.515625 27.296875 
Q 5.515625 40.765625 12.171875 48.375 
Q 18.84375 56 30.609375 56 
z
" id="DejaVuSans-111"/>
       <path d="M 54.890625 33.015625 
L 54.890625 0 
L 45.90625 0 
L 45.90625 32.71875 
Q 45.90625 40.484375 42.875 44.328125 
Q 39.84375 48.1875 33.796875 48.1875 
Q 26.515625 48.1875 22.3125 43.546875 
Q 18.109375 38.921875 18.109375 30.90625 
L 18.109375 0 
L 9.078125 0 
L 9.078125 54.6875 
L 18.109375 54.6875 
L 18.109375 46.1875 
Q 21.34375 51.125 25.703125 53.5625 
Q 30.078125 56 35.796875 56 
Q 45.21875 56 50.046875 50.171875 
Q 54.890625 44.34375 54.890625 33.015625 
z
" id="DejaVuSans-110"/>
       <path d="M 32.171875 -5.078125 
Q 28.375 -14.84375 24.75 -17.8125 
Q 21.140625 -20.796875 15.09375 -20.796875 
L 7.90625 -20.796875 
L 7.90625 -13.28125 
L 13.1875 -13.28125 
Q 16.890625 -13.28125 18.9375 -11.515625 
Q 21 -9.765625 23.484375 -3.21875 
L 25.09375 0.875 
L 2.984375 54.6875 
L 12.5 54.6875 
L 29.59375 11.921875 
L 46.6875 54.6875 
L 56.203125 54.6875 
z
" id="DejaVuSans-121"/>
       <path d="M 50.984375 -16.609375 
L 50.984375 -23.578125 
L -0.984375 -23.578125 
L -0.984375 -16.609375 
z
" id="DejaVuSans-95"/>
       <path d="M 8.5 21.578125 
L 8.5 54.6875 
L 17.484375 54.6875 
L 17.484375 21.921875 
Q 17.484375 14.15625 20.5 10.265625 
Q 23.53125 6.390625 29.59375 6.390625 
Q 36.859375 6.390625 41.078125 11.03125 
Q 45.3125 15.671875 45.3125 23.6875 
L 45.3125 54.6875 
L 54.296875 54.6875 
L 54.296875 0 
L 45.3125 0 
L 45.3125 8.40625 
Q 42.046875 3.421875 37.71875 1 
Q 33.40625 -1.421875 27.6875 -1.421875 
Q 18.265625 -1.421875 13.375 4.4375 
Q 8.5 10.296875 8.5 21.578125 
z
M 31.109375 56 
z
" id="DejaVuSans-117"/>
      </defs>
      <use xlink:href="#DejaVuSans-67"/>
      <use x="69.824219" xlink:href="#DejaVuSans-114"/>
      <use x="108.6875" xlink:href="#DejaVuSans-111"/>
      <use x="169.869141" xlink:href="#DejaVuSans-115"/>
      <use x="221.96875" xlink:href="#DejaVuSans-115"/>
      <use x="274.068359" xlink:href="#DejaVuSans-69"/>
      <use x="337.251953" xlink:href="#DejaVuSans-110"/>
      <use x="400.630859" xlink:href="#DejaVuSans-116"/>
      <use x="439.839844" xlink:href="#DejaVuSans-114"/>
      <use x="478.703125" xlink:href="#DejaVuSans-111"/>
      <use x="539.884766" xlink:href="#DejaVuSans-112"/>
      <use x="603.361328" xlink:href="#DejaVuSans-121"/>
      <use x="662.541016" xlink:href="#DejaVuSans-76"/>
      <use x="716.503906" xlink:href="#DejaVuSans-111"/>
      <use x="777.685547" xlink:href="#DejaVuSans-115"/>
      <use x="829.785156" xlink:href="#DejaVuSans-115"/>
      <use x="881.884766" xlink:href="#DejaVuSans-95"/>
      <use x="931.884766" xlink:href="#DejaVuSans-111"/>
      <use x="993.066406" xlink:href="#DejaVuSans-117"/>
      <use x="1056.445312" xlink:href="#DejaVuSans-116"/>
      <use x="1095.654297" xlink:href="#DejaVuSans-112"/>
      <use x="1159.130859" xlink:href="#DejaVuSans-117"/>
      <use x="1222.509766" xlink:href="#DejaVuSans-116"/>
      <use x="1261.71875" xlink:href="#DejaVuSans-95"/>
      <use x="1311.71875" xlink:href="#DejaVuSans-48"/>
     </g>
    </g>
   </g>
   <g id="line2d_21">
    <path clip-path="url(#p5c1030c2c4)" d="M 69.246449 236.206907 
L 77.298397 252.43218 
L 85.350345 240.86114 
L 93.402293 258.153941 
L 101.454241 250.245984 
L 109.506189 251.304098 
L 117.558137 255.650449 
L 125.610085 255.059425 
L 133.662033 245.785606 
L 141.713981 267.343315 
L 149.765929 254.229859 
L 157.817877 273.97837 
L 165.869825 263.703764 
L 173.921774 270.671443 
L 181.973722 266.464758 
L 190.02567 278.670882 
L 198.077618 278.806558 
L 206.129566 267.949354 
L 214.181514 271.780699 
L 222.233462 284.169607 
L 230.28541 280.222577 
L 238.337358 267.853077 
L 246.389306 277.237606 
L 254.441254 272.82335 
L 262.493202 277.279022 
L 270.54515 279.660777 
L 278.597098 248.320742 
L 286.649046 282.30492 
L 294.700994 274.612513 
L 302.752942 291.238809 
L 310.80489 287.301011 
L 318.856838 292.623811 
L 326.908787 281.252408 
L 334.960735 277.707611 
L 343.012683 276.443539 
L 351.064631 286.842437 
L 359.116579 274.665179 
L 367.168527 295.647686 
L 375.220475 283.861545 
L 383.272423 285.145429 
L 391.324371 297.729223 
L 399.376319 288.832626 
L 407.428267 281.585436 
L 415.480215 284.141818 
L 423.532163 306.682027 
L 431.584111 281.574051 
L 439.636059 291.455523 
L 447.688007 284.259207 
L 455.739955 283.21418 
L 463.791903 284.454452 
L 471.843851 293.845705 
L 479.8958 297.769608 
L 487.947748 288.682382 
L 495.999696 281.297589 
L 504.051644 288.696725 
L 512.103592 302.253248 
L 520.15554 296.57259 
L 528.207488 288.125244 
L 536.259436 298.920235 
L 544.311384 290.387638 
L 552.363332 293.040566 
L 560.41528 301.841109 
L 568.467228 297.340616 
L 576.519176 300.469106 
" style="fill:none;stroke:#1f77b4;stroke-linecap:square;stroke-width:1.5;"/>
   </g>
   <g id="line2d_22">
    <path clip-path="url(#p5c1030c2c4)" d="M 69.246449 52.772926 
L 69.930105 65.749182 
L 70.613761 56.096841 
L 71.297417 95.461549 
L 71.981073 250.977346 
L 72.664729 253.023204 
L 73.348385 251.373886 
L 74.032041 253.751473 
L 74.715697 248.658431 
L 75.399353 250.504921 
L 76.083009 246.395679 
L 76.766664 303.004645 
L 77.45032 305.819605 
L 78.133976 302.614021 
L 78.817632 301.173888 
L 79.501288 300.585195 
L 80.184944 303.910544 
L 80.8686 301.452905 
L 81.552256 294.867827 
L 82.235912 322.320131 
L 83.603224 336.08288 
L 84.28688 339.639018 
L 84.970536 336.146258 
L 85.654192 333.437706 
L 86.337848 331.446306 
L 87.021504 296.644126 
L 87.70516 187.468381 
L 88.388816 185.911576 
L 89.072472 181.557113 
L 89.756128 183.642863 
L 90.439784 184.336215 
L 91.12344 187.595855 
L 91.807096 103.453009 
L 92.490752 115.254479 
L 93.174408 101.007786 
L 93.858064 132.206542 
L 94.54172 271.878994 
L 95.225376 274.63721 
L 95.909032 278.185907 
L 96.592688 276.514627 
L 97.276343 273.876714 
L 97.959999 273.431406 
L 98.643655 261.606405 
L 99.327311 290.649264 
L 100.010967 292.320544 
L 100.694623 288.803581 
L 101.378279 287.26224 
L 102.061935 288.692602 
L 102.745591 293.680356 
L 103.429247 290.030272 
L 104.112903 285.696426 
L 104.796559 292.827034 
L 105.480215 287.387159 
L 106.163871 298.997956 
L 106.847527 299.794041 
L 107.531183 298.273228 
L 108.214839 291.721901 
L 108.898495 289.525396 
L 109.582151 282.750675 
L 110.265807 251.580113 
L 110.949463 250.73692 
L 111.633119 245.648271 
L 112.316775 245.821598 
L 113.000431 248.125138 
L 113.684087 246.173317 
L 114.367743 166.954309 
L 115.051399 180.507067 
L 115.735055 164.987158 
L 116.418711 178.941342 
L 117.102367 266.86856 
L 117.786022 270.015965 
L 118.469678 274.412113 
L 119.153334 272.833839 
L 119.83699 269.719826 
L 120.520646 269.938154 
L 121.204302 254.244381 
L 121.887958 334.510522 
L 122.571614 337.281691 
L 123.25527 335.842499 
L 123.938926 332.581515 
L 124.622582 334.000312 
L 125.306238 337.125396 
L 125.989894 335.610231 
L 126.67355 332.84211 
L 127.357206 302.483006 
L 128.040862 277.65602 
L 128.724518 292.026377 
L 129.408174 291.490843 
L 130.09183 290.77127 
L 130.775486 283.398982 
L 131.459142 279.649213 
L 132.142798 266.223884 
L 132.826454 209.992275 
L 133.51011 206.561415 
L 134.193766 199.169988 
L 134.877422 199.130455 
L 135.561078 203.110385 
L 136.244734 195.86315 
L 136.92839 182.774211 
L 137.612046 198.691109 
L 138.295701 180.002012 
L 138.979357 182.144282 
L 139.663013 235.238705 
L 140.346669 239.445391 
L 141.030325 246.55166 
L 141.713981 241.370409 
L 142.397637 241.3839 
L 143.081293 238.967587 
L 143.764949 217.511131 
L 144.448605 363.768886 
L 145.132261 365.172309 
L 145.815917 363.986093 
L 146.499573 359.347368 
L 147.183229 360.72103 
L 148.550541 362.247535 
L 149.234197 360.012438 
L 149.917853 314.51271 
L 150.601509 284.823606 
L 151.285165 298.663359 
L 151.968821 298.426699 
L 152.652477 297.442317 
L 153.336133 292.119024 
L 154.019789 285.025664 
L 154.703445 273.585998 
L 155.387101 223.214246 
L 156.070757 219.314726 
L 156.754413 209.872376 
L 157.438069 210.447936 
L 158.121725 212.729379 
L 158.80538 201.235388 
L 159.489036 107.491836 
L 160.172692 125.353114 
L 160.856348 101.252873 
L 161.540004 133.94631 
L 162.22366 324.402295 
L 162.907316 328.20733 
L 163.590972 339.306124 
L 164.274628 332.800336 
L 164.958284 327.724551 
L 165.64194 332.288737 
L 166.325596 309.639745 
L 167.009252 326.810674 
L 167.692908 327.553779 
L 168.376564 324.611883 
L 169.06022 320.604835 
L 169.743876 323.953671 
L 170.427532 323.547269 
L 171.111188 323.920234 
L 171.794844 321.588635 
L 172.4785 303.69374 
L 173.162156 289.133068 
L 173.845812 304.601342 
L 174.529468 302.497618 
L 175.213124 302.677175 
L 175.89678 295.942615 
L 176.580436 287.171879 
L 177.264092 279.934415 
L 177.947748 232.416439 
L 179.315059 219.837441 
L 179.998715 220.222059 
L 180.682371 220.772698 
L 181.366027 207.97201 
L 182.049683 166.709805 
L 182.733339 182.657719 
L 183.416995 159.879101 
L 184.100651 165.352324 
L 184.784307 263.111306 
L 185.467963 265.129867 
L 186.151619 276.586611 
L 186.835275 267.769887 
L 187.518931 265.791889 
L 188.202587 267.176353 
L 188.886243 241.409718 
L 189.569899 317.894983 
L 190.253555 316.7799 
L 190.937211 311.94956 
L 191.620867 310.112214 
L 192.304523 313.528059 
L 192.988179 311.184717 
L 193.671835 312.545828 
L 194.355491 312.230819 
L 195.039147 319.931384 
L 195.722803 319.932415 
L 196.406459 333.892291 
L 197.090115 333.164381 
L 197.773771 335.443224 
L 198.457427 325.180003 
L 199.141083 318.360012 
L 199.824738 312.712566 
L 200.508394 276.300556 
L 201.19205 268.789096 
L 201.875706 263.29279 
L 202.559362 264.190307 
L 203.243018 263.776689 
L 203.926674 249.231885 
L 204.61033 159.489822 
L 205.293986 174.568726 
L 205.977642 154.038697 
L 206.661298 167.849316 
L 207.344954 316.174578 
L 208.02861 317.959392 
L 208.712266 330.227415 
L 209.395922 321.910681 
L 210.079578 318.923694 
L 210.763234 321.339693 
L 211.44689 292.011138 
L 212.130546 312.743045 
L 212.814202 310.001011 
L 213.497858 304.442985 
L 214.181514 303.809694 
L 214.86517 307.046251 
L 215.548826 304.998196 
L 216.232482 306.481269 
L 216.916138 308.539139 
L 217.599794 294.909288 
L 218.28345 286.454367 
L 218.967106 298.287437 
L 219.650762 297.549128 
L 220.334417 299.948363 
L 221.018073 288.257021 
L 221.701729 284.357053 
L 222.385385 287.411767 
L 223.069041 279.851136 
L 223.752697 276.242691 
L 224.436353 270.355223 
L 225.120009 270.662837 
L 225.803665 267.933263 
L 226.487321 253.746408 
L 227.170977 192.993821 
L 227.854633 209.68251 
L 228.538289 189.319488 
L 229.221945 200.725537 
L 229.905601 340.292658 
L 230.589257 343.052845 
L 231.272913 354.535272 
L 231.956569 347.515688 
L 232.640225 342.784316 
L 233.323881 348.592987 
L 234.007537 320.463825 
L 234.691193 346.834393 
L 235.374849 343.472783 
L 236.058505 336.803888 
L 236.742161 336.449211 
L 237.425817 340.355543 
L 238.109473 337.757477 
L 238.793129 339.234543 
L 239.476785 343.028417 
L 240.160441 290.923127 
L 240.844096 263.176432 
L 241.527752 275.122543 
L 242.211408 274.556844 
L 242.895064 277.341369 
L 243.57872 264.571564 
L 244.262376 258.26241 
L 244.946032 253.778411 
L 245.629688 224.869345 
L 246.313344 214.31106 
L 246.997 209.751849 
L 247.680656 209.862067 
L 248.364312 205.842828 
L 249.047968 188.880052 
L 249.731624 248.954122 
L 250.41528 265.559935 
L 251.098936 244.395226 
L 251.782592 228.793382 
L 252.466248 260.133373 
L 253.149904 260.299886 
L 253.83356 272.511613 
L 254.517216 264.904636 
L 255.200872 261.900482 
L 255.884528 263.26249 
L 256.568184 231.174196 
L 257.25184 322.86696 
L 257.935496 318.097041 
L 258.619152 312.441976 
L 259.302808 311.544369 
L 259.986464 315.981664 
L 260.67012 311.199463 
L 261.353775 312.310199 
L 262.037431 317.142062 
L 262.721087 357.263456 
L 263.404743 374.184099 
L 264.088399 387.965449 
L 264.772055 387.822512 
L 265.455711 391.217424 
L 266.139367 379.797749 
L 266.823023 371.75313 
L 267.506679 326.105264 
L 268.190335 186.39682 
L 268.873991 172.959121 
L 269.557647 171.806432 
L 270.241303 172.64949 
L 270.924959 165.361064 
L 271.608615 154.679966 
L 272.292271 202.11789 
L 272.975927 217.153451 
L 273.659583 193.367996 
L 274.343239 193.361541 
L 275.026895 289.605851 
L 275.710551 289.707956 
L 276.394207 304.114619 
L 277.077863 294.133149 
L 277.761519 289.663537 
L 278.445175 294.410194 
L 279.128831 258.738824 
L 279.812487 346.557393 
L 280.496143 342.256133 
L 281.179799 336.387491 
L 281.863454 335.928916 
L 282.54711 339.568602 
L 283.230766 335.526414 
L 283.914422 336.897521 
L 284.598078 342.076934 
L 285.281734 289.391333 
L 285.96539 260.380118 
L 286.649046 271.307065 
L 287.332702 273.165881 
L 288.016358 274.656304 
L 288.700014 260.287964 
L 289.38367 258.862264 
L 290.067326 274.258642 
L 290.750982 311.275705 
L 291.434638 303.548292 
L 292.118294 301.806103 
L 292.80195 299.570648 
L 293.485606 292.595259 
L 294.169262 276.945367 
L 294.852918 217.32261 
L 295.536574 232.347593 
L 296.22023 207.937766 
L 296.903886 212.808983 
L 297.587542 330.463 
L 298.271198 331.470555 
L 298.954854 343.609177 
L 300.322166 329.284986 
L 301.005822 337.515617 
L 301.689478 304.536619 
L 302.373133 329.395518 
L 303.056789 324.095353 
L 303.740445 317.232603 
L 304.424101 317.934426 
L 305.107757 320.723793 
L 305.791413 317.47621 
L 306.475069 318.164901 
L 307.158725 325.492457 
L 307.842381 326.000202 
L 308.526037 321.906558 
L 309.209693 335.956347 
L 309.893349 335.624081 
L 310.577005 338.429091 
L 311.260661 325.46274 
L 311.944317 320.416627 
L 312.627973 293.854759 
L 313.311629 208.591316 
L 313.995285 193.221652 
L 314.678941 195.175804 
L 315.362597 192.162686 
L 316.046253 182.565744 
L 316.729909 168.961217 
L 317.413565 289.768824 
L 318.097221 303.636233 
L 318.780877 282.960577 
L 319.464533 251.364294 
L 320.148189 238.623892 
L 320.831845 240.197594 
L 321.515501 250.731362 
L 322.199157 243.128733 
L 322.882812 238.790002 
L 323.566468 241.634904 
L 324.250124 208.173396 
L 324.93378 385.814797 
L 325.617436 381.94356 
L 326.301092 375.370539 
L 326.984748 374.148196 
L 327.668404 376.979382 
L 328.35206 372.256526 
L 329.035716 374.415515 
L 329.719372 384.151764 
L 330.403028 330.253905 
L 331.086684 299.702604 
L 331.77034 316.814099 
L 332.453996 317.588848 
L 333.137652 319.469403 
L 333.821308 304.148684 
L 334.504964 300.679725 
L 335.18862 280.696615 
L 335.872276 229.534201 
L 336.555932 216.576502 
L 337.239588 212.801408 
L 337.923244 211.56656 
L 338.6069 201.566713 
L 339.290556 186.949969 
L 339.974212 230.552335 
L 340.657868 245.049448 
L 341.341524 225.410796 
L 342.02518 219.069863 
L 342.708836 317.334662 
L 343.392492 318.101344 
L 344.076147 332.847937 
L 345.443459 314.366859 
L 346.127115 322.233221 
L 346.810771 287.142834 
L 347.494427 346.031316 
L 348.178083 341.269465 
L 348.861739 332.124419 
L 349.545395 332.875682 
L 350.229051 335.608259 
L 350.912707 333.578761 
L 351.596363 332.927496 
L 352.280019 344.203876 
L 352.963675 292.06107 
L 353.647331 262.384561 
L 354.330987 278.408897 
L 355.014643 280.610018 
L 355.698299 284.221018 
L 356.381955 264.855915 
L 357.065611 266.860626 
L 357.749267 267.068153 
L 358.432923 285.039738 
L 359.116579 273.496578 
L 359.800235 273.060683 
L 360.483891 266.79411 
L 361.167547 258.169763 
L 361.851203 243.032411 
L 362.534859 279.260516 
L 363.218515 293.370636 
L 363.902171 276.186081 
L 364.585826 254.331874 
L 365.269482 308.622284 
L 365.953138 308.640213 
L 366.636794 322.795603 
L 367.32045 313.64119 
L 368.004106 302.851175 
L 368.687762 312.146777 
L 369.371418 279.881525 
L 370.055074 348.66645 
L 370.73873 341.692227 
L 371.422386 332.784469 
L 372.106042 334.488962 
L 372.789698 337.520503 
L 373.473354 334.873715 
L 374.15701 334.322404 
L 374.840666 345.860051 
L 375.524322 333.596959 
L 376.207978 324.051876 
L 376.891634 339.437273 
L 377.57529 343.278614 
L 378.258946 345.902453 
L 378.942602 329.5913 
L 379.626258 325.482551 
L 380.309914 287.818616 
L 380.99357 187.876576 
L 381.677226 171.563138 
L 382.360882 170.857504 
L 383.044538 166.781744 
L 383.728194 156.657247 
L 384.41185 141.841762 
L 385.095505 223.727682 
L 385.779161 237.931346 
L 386.462817 215.557696 
L 387.146473 205.936147 
L 387.830129 301.842768 
L 388.513785 299.494226 
L 389.197441 319.484777 
L 390.564753 295.992906 
L 391.248409 303.847838 
L 391.932065 266.26763 
L 392.615721 316.262384 
L 393.299377 309.420789 
L 393.983033 300.202684 
L 394.666689 303.133598 
L 395.350345 305.087034 
L 396.034001 302.034337 
L 396.717657 300.865736 
L 397.401313 310.912467 
L 398.084969 324.313189 
L 398.768625 329.109643 
L 399.452281 344.1777 
L 400.819593 350.818985 
L 401.503249 333.112701 
L 402.186905 332.600206 
L 402.870561 315.646081 
L 403.554217 278.660079 
L 404.237873 267.290067 
L 404.921529 267.749313 
L 405.605184 262.137994 
L 406.28884 253.183756 
L 406.972496 236.293413 
L 407.656152 261.381039 
L 408.339808 277.68874 
L 409.70712 229.541149 
L 410.390776 265.912595 
L 411.074432 263.108034 
L 411.758088 283.165235 
L 412.441744 270.321248 
L 413.1254 260.818702 
L 413.809056 265.733889 
L 414.492712 228.506207 
L 415.176368 322.217488 
L 415.860024 316.102235 
L 416.54368 305.364392 
L 417.227336 308.234125 
L 417.910992 310.10948 
L 418.594648 307.130202 
L 419.278304 306.409733 
L 419.96196 316.677571 
L 420.645616 339.016663 
L 421.329272 349.730436 
L 422.012928 367.253039 
L 422.696584 367.914927 
L 423.38024 373.878278 
L 424.063896 355.090572 
L 424.747552 354.511875 
L 425.431208 326.073037 
L 426.114863 264.598681 
L 426.798519 253.70692 
L 427.482175 253.854563 
L 428.165831 248.850359 
L 428.849487 239.05638 
L 429.533143 223.034509 
L 430.216799 263.138916 
L 430.900455 277.279739 
L 432.267767 238.97189 
L 432.951423 314.743095 
L 433.635079 310.790372 
L 434.318735 332.356687 
L 435.686047 306.081501 
L 436.369703 316.567085 
L 437.053359 281.628331 
L 437.737015 295.957945 
L 438.420671 290.624657 
L 439.104327 275.483002 
L 439.787983 279.706047 
L 440.471639 280.652017 
L 441.155295 279.756786 
L 441.838951 278.216834 
L 442.522607 290.226951 
L 443.206263 288.20319 
L 443.889919 288.33156 
L 444.573575 305.19994 
L 445.257231 306.000686 
L 445.940887 313.090596 
L 446.624542 292.725153 
L 447.308198 292.700815 
L 447.991854 294.738426 
L 448.67551 322.533349 
L 449.359166 313.708423 
L 450.042822 312.732109 
L 450.726478 306.677186 
L 451.410134 296.917899 
L 452.09379 278.953978 
L 452.777446 383.86562 
L 453.461102 398.700199 
L 454.144758 383.443665 
L 455.51207 282.862686 
L 456.195726 279.743205 
L 456.879382 294.480475 
L 457.563038 287.699076 
L 458.246694 273.451576 
L 458.93035 283.589879 
L 459.614006 253.183891 
L 460.297662 351.335828 
L 460.981318 343.382377 
L 461.664974 324.963378 
L 462.34863 334.975999 
L 463.032286 334.105779 
L 463.715942 331.064378 
L 464.399598 333.562535 
L 465.083254 350.124826 
L 465.76691 297.154738 
L 466.450566 269.608667 
L 467.134221 290.310947 
L 467.817877 293.624149 
L 468.501533 299.051294 
L 469.185189 277.586232 
L 469.868845 277.466916 
L 470.552501 253.376536 
L 471.236157 222.004274 
L 471.919813 204.574005 
L 472.603469 204.10149 
L 473.287125 197.030272 
L 473.970781 188.379928 
L 474.654437 168.13425 
L 475.338093 328.069905 
L 476.021749 345.266876 
L 476.705405 327.740866 
L 477.389061 286.175843 
L 478.072717 277.658575 
L 478.756373 277.303809 
L 479.440029 292.901573 
L 480.123685 284.193856 
L 480.807341 271.460984 
L 481.490997 276.876161 
L 482.174653 243.645577 
L 482.858309 336.738089 
L 483.541965 330.392271 
L 484.225621 313.148909 
L 484.909277 322.995017 
L 485.592933 322.49422 
L 486.276589 316.794377 
L 486.960245 319.739456 
L 487.6439 333.000556 
L 488.327556 303.579712 
L 489.011212 287.454661 
L 489.694868 307.337549 
L 490.378524 310.395759 
L 491.06218 314.847038 
L 491.745836 293.79528 
L 492.429492 294.944204 
L 493.113148 282.165837 
L 493.796804 278.212352 
L 494.48046 264.121505 
L 495.164116 264.302497 
L 496.531428 250.109725 
L 497.215084 231.250662 
L 497.89874 336.922532 
L 498.582396 355.13768 
L 499.266052 336.890842 
L 499.949708 300.45436 
L 500.633364 306.064334 
L 501.31702 305.913463 
L 502.000676 318.944581 
L 502.684332 312.779575 
L 503.367988 299.785614 
L 504.051644 307.182555 
L 504.7353 274.113329 
L 505.418956 345.221964 
L 506.102612 338.303365 
L 506.786268 318.256159 
L 507.469924 331.158818 
L 508.153579 328.553177 
L 508.837235 324.222514 
L 509.520891 327.112461 
L 510.204547 340.854009 
L 510.888203 275.08413 
L 511.571859 240.719816 
L 512.255515 260.083755 
L 512.939171 261.669469 
L 513.622827 266.263462 
L 514.306483 243.312593 
L 514.990139 246.349647 
L 515.673795 247.343979 
L 516.357451 285.244306 
L 517.041107 272.626537 
L 517.724763 270.871036 
L 518.408419 262.202404 
L 519.092075 257.419845 
L 519.775731 237.871912 
L 520.459387 248.299989 
L 521.143043 265.919184 
L 522.510355 220.066661 
L 523.194011 283.615562 
L 523.877667 287.076722 
L 524.561323 302.74898 
L 525.928635 280.474925 
L 526.612291 284.715585 
L 527.295947 249.767688 
L 527.979603 328.488274 
L 528.663258 322.014041 
L 529.346914 307.344407 
L 530.03057 311.883269 
L 530.714226 314.316434 
L 531.397882 310.126109 
L 532.081538 308.202122 
L 532.765194 319.943531 
L 533.44885 352.316266 
L 534.132506 365.435505 
L 534.816162 385.495664 
L 535.499818 388.620479 
L 536.183474 392.327577 
L 536.86713 372.564723 
L 537.550786 374.727746 
L 538.234442 327.082565 
L 538.918098 225.712762 
L 539.601754 206.892829 
L 540.28541 210.905121 
L 540.969066 202.913616 
L 541.652722 198.0346 
L 542.336378 180.22657 
L 543.020034 286.303093 
L 543.70369 305.233378 
L 544.387346 284.995768 
L 545.071002 260.520008 
L 545.754658 330.982532 
L 546.438314 332.03491 
L 547.12197 346.004826 
L 547.805626 338.910569 
L 548.489282 325.291475 
L 549.172937 332.185064 
L 549.856593 301.971362 
L 550.540249 340.662664 
L 551.223905 336.081177 
L 551.907561 319.73206 
L 552.591217 325.733062 
L 553.274873 326.568232 
L 553.958529 322.949522 
L 554.642185 322.132775 
L 555.325841 338.309326 
L 556.009497 304.88511 
L 556.693153 289.072603 
L 557.376809 304.988515 
L 558.744121 314.196132 
L 559.427777 290.339544 
L 560.111433 294.663752 
L 560.795089 271.149022 
L 561.478745 237.876798 
L 562.162401 220.03672 
L 562.846057 223.044236 
L 563.529713 211.586551 
L 564.213369 206.898387 
L 564.897025 184.313446 
L 565.580681 245.55921 
L 566.264337 266.526164 
L 566.947993 338.78193 
L 567.631649 344.514089 
L 568.315305 346.915969 
L 568.998961 314.917946 
L 569.682616 328.772177 
L 570.366272 329.683679 
L 571.049928 343.071581 
L 571.733584 310.617718 
L 572.41724 299.898431 
L 573.100896 293.132182 
L 573.784552 301.812513 
L 574.468208 235.358291 
L 575.151864 236.28288 
L 576.519176 241.344457 
L 576.519176 241.344457 
" style="fill:none;stroke:#ff7f0e;stroke-linecap:square;stroke-width:1.5;"/>
   </g>
   <g id="patch_3">
    <path d="M 43.882813 35.476562 
L 601.882812 35.476562 
" style="fill:none;stroke:#000000;stroke-linecap:square;stroke-linejoin:miter;stroke-width:0.8;"/>
   </g>
   <g id="patch_4">
    <path d="M 43.882813 415.996562 
L 43.882813 35.476562 
" style="fill:none;stroke:#000000;stroke-linecap:square;stroke-linejoin:miter;stroke-width:0.8;"/>
   </g>
   <g id="patch_5">
    <path d="M 601.882812 415.996562 
L 601.882812 35.476562 
" style="fill:none;stroke:#000000;stroke-linecap:square;stroke-linejoin:miter;stroke-width:0.8;"/>
   </g>
   <g id="patch_6">
    <path d="M 43.882813 415.996562 
L 601.882812 415.996562 
" style="fill:none;stroke:#000000;stroke-linecap:square;stroke-linejoin:miter;stroke-width:0.8;"/>
   </g>
   <g id="legend_1">
    <g id="patch_7">
     <path d="M 405.523438 73.389063 
L 594.882812 73.389063 
Q 596.882812 73.389063 596.882812 71.389063 
L 596.882812 42.476562 
Q 596.882812 40.476562 594.882812 40.476562 
L 405.523438 40.476562 
Q 403.523438 40.476562 403.523438 42.476562 
L 403.523438 71.389063 
Q 403.523438 73.389063 405.523438 73.389063 
z
" style="fill:#ffffff;opacity:0.8;stroke:#cccccc;stroke-linejoin:miter;"/>
    </g>
    <g id="line2d_23">
     <path d="M 407.523438 48.575 
L 427.523438 48.575 
" style="fill:none;stroke:#1f77b4;stroke-linecap:square;stroke-width:1.5;"/>
    </g>
    <g id="line2d_24"/>
    <g id="text_24">
     <!-- CrossEntropyLoss_output_0 -->
     <g style="fill:#1f77b4;" transform="translate(435.523438 52.075)scale(0.1 -0.1)">
      <use xlink:href="#DejaVuSans-67"/>
      <use x="69.824219" xlink:href="#DejaVuSans-114"/>
      <use x="108.6875" xlink:href="#DejaVuSans-111"/>
      <use x="169.869141" xlink:href="#DejaVuSans-115"/>
      <use x="221.96875" xlink:href="#DejaVuSans-115"/>
      <use x="274.068359" xlink:href="#DejaVuSans-69"/>
      <use x="337.251953" xlink:href="#DejaVuSans-110"/>
      <use x="400.630859" xlink:href="#DejaVuSans-116"/>
      <use x="439.839844" xlink:href="#DejaVuSans-114"/>
      <use x="478.703125" xlink:href="#DejaVuSans-111"/>
      <use x="539.884766" xlink:href="#DejaVuSans-112"/>
      <use x="603.361328" xlink:href="#DejaVuSans-121"/>
      <use x="662.541016" xlink:href="#DejaVuSans-76"/>
      <use x="716.503906" xlink:href="#DejaVuSans-111"/>
      <use x="777.685547" xlink:href="#DejaVuSans-115"/>
      <use x="829.785156" xlink:href="#DejaVuSans-115"/>
      <use x="881.884766" xlink:href="#DejaVuSans-95"/>
      <use x="931.884766" xlink:href="#DejaVuSans-111"/>
      <use x="993.066406" xlink:href="#DejaVuSans-117"/>
      <use x="1056.445312" xlink:href="#DejaVuSans-116"/>
      <use x="1095.654297" xlink:href="#DejaVuSans-112"/>
      <use x="1159.130859" xlink:href="#DejaVuSans-117"/>
      <use x="1222.509766" xlink:href="#DejaVuSans-116"/>
      <use x="1261.71875" xlink:href="#DejaVuSans-95"/>
      <use x="1311.71875" xlink:href="#DejaVuSans-48"/>
     </g>
    </g>
    <g id="line2d_25">
     <path d="M 407.523438 63.53125 
L 427.523438 63.53125 
" style="fill:none;stroke:#ff7f0e;stroke-linecap:square;stroke-width:1.5;"/>
    </g>
    <g id="line2d_26"/>
    <g id="text_25">
     <!-- val_CrossEntropyLoss_output_0 -->
     <g style="fill:#ff7f0e;" transform="translate(435.523438 67.03125)scale(0.1 -0.1)">
      <defs>
       <path d="M 2.984375 54.6875 
L 12.5 54.6875 
L 29.59375 8.796875 
L 46.6875 54.6875 
L 56.203125 54.6875 
L 35.6875 0 
L 23.484375 0 
z
" id="DejaVuSans-118"/>
       <path d="M 34.28125 27.484375 
Q 23.390625 27.484375 19.1875 25 
Q 14.984375 22.515625 14.984375 16.5 
Q 14.984375 11.71875 18.140625 8.90625 
Q 21.296875 6.109375 26.703125 6.109375 
Q 34.1875 6.109375 38.703125 11.40625 
Q 43.21875 16.703125 43.21875 25.484375 
L 43.21875 27.484375 
z
M 52.203125 31.203125 
L 52.203125 0 
L 43.21875 0 
L 43.21875 8.296875 
Q 40.140625 3.328125 35.546875 0.953125 
Q 30.953125 -1.421875 24.3125 -1.421875 
Q 15.921875 -1.421875 10.953125 3.296875 
Q 6 8.015625 6 15.921875 
Q 6 25.140625 12.171875 29.828125 
Q 18.359375 34.515625 30.609375 34.515625 
L 43.21875 34.515625 
L 43.21875 35.40625 
Q 43.21875 41.609375 39.140625 45 
Q 35.0625 48.390625 27.6875 48.390625 
Q 23 48.390625 18.546875 47.265625 
Q 14.109375 46.140625 10.015625 43.890625 
L 10.015625 52.203125 
Q 14.9375 54.109375 19.578125 55.046875 
Q 24.21875 56 28.609375 56 
Q 40.484375 56 46.34375 49.84375 
Q 52.203125 43.703125 52.203125 31.203125 
z
" id="DejaVuSans-97"/>
       <path d="M 9.421875 75.984375 
L 18.40625 75.984375 
L 18.40625 0 
L 9.421875 0 
z
" id="DejaVuSans-108"/>
      </defs>
      <use xlink:href="#DejaVuSans-118"/>
      <use x="59.179688" xlink:href="#DejaVuSans-97"/>
      <use x="120.458984" xlink:href="#DejaVuSans-108"/>
      <use x="148.242188" xlink:href="#DejaVuSans-95"/>
      <use x="198.242188" xlink:href="#DejaVuSans-67"/>
      <use x="268.066406" xlink:href="#DejaVuSans-114"/>
      <use x="306.929688" xlink:href="#DejaVuSans-111"/>
      <use x="368.111328" xlink:href="#DejaVuSans-115"/>
      <use x="420.210938" xlink:href="#DejaVuSans-115"/>
      <use x="472.310547" xlink:href="#DejaVuSans-69"/>
      <use x="535.494141" xlink:href="#DejaVuSans-110"/>
      <use x="598.873047" xlink:href="#DejaVuSans-116"/>
      <use x="638.082031" xlink:href="#DejaVuSans-114"/>
      <use x="676.945312" xlink:href="#DejaVuSans-111"/>
      <use x="738.126953" xlink:href="#DejaVuSans-112"/>
      <use x="801.603516" xlink:href="#DejaVuSans-121"/>
      <use x="860.783203" xlink:href="#DejaVuSans-76"/>
      <use x="914.746094" xlink:href="#DejaVuSans-111"/>
      <use x="975.927734" xlink:href="#DejaVuSans-115"/>
      <use x="1028.027344" xlink:href="#DejaVuSans-115"/>
      <use x="1080.126953" xlink:href="#DejaVuSans-95"/>
      <use x="1130.126953" xlink:href="#DejaVuSans-111"/>
      <use x="1191.308594" xlink:href="#DejaVuSans-117"/>
      <use x="1254.6875" xlink:href="#DejaVuSans-116"/>
      <use x="1293.896484" xlink:href="#DejaVuSans-112"/>
      <use x="1357.373047" xlink:href="#DejaVuSans-117"/>
      <use x="1420.751953" xlink:href="#DejaVuSans-116"/>
      <use x="1459.960938" xlink:href="#DejaVuSans-95"/>
      <use x="1509.960938" xlink:href="#DejaVuSans-48"/>
     </g>
    </g>
   </g>
  </g>
 </g>
 <defs>
  <clipPath id="p5c1030c2c4">
   <rect height="380.52" width="558" x="43.882813" y="35.476562"/>
  </clipPath>
 </defs>
</svg>
